<svg width="128" height="128" viewBox="0 0 128 128" fill="none" xmlns="http://www.w3.org/2000/svg">
<path d="M64.0241 4C89.9685 4 111.163 25.0312 112.482 51.4768H116.279C119.878 51.4771 122.811 54.367 122.811 58.0825V62.46C125.216 63.5796 127.109 65.7987 127.763 68.6545C128.748 72.9624 126.583 77.2781 122.811 79.0252V85.193C122.811 88.9082 119.878 91.9358 116.279 91.936H110.594C110.324 96.8244 109.604 102.45 108.015 108.037C105.049 118.202 89.9406 120.52 79.8864 120.906V121.798C79.8864 123.037 78.9532 124 77.7534 124H64.2898C63.0901 124 62.1569 123.037 62.1569 121.798V116.294C62.1569 115.055 63.0901 114.092 64.2898 114.092H77.7534C78.9532 114.092 79.8864 115.055 79.8864 116.294V117.914C89.1974 117.584 102.87 115.643 105.216 107.211C106.68 101.971 107.34 96.6206 107.588 91.936H104.549C102.016 91.936 100.016 89.8714 100.016 87.2568V56.156C100.016 53.5414 102.016 51.4768 104.549 51.4768H105.004C103.694 29.2984 85.8351 11.7064 64.0241 11.7064C42.213 11.7065 24.3538 29.2984 23.0438 51.4768H23.4997C25.899 51.4768 27.8987 53.5407 28.0323 56.0174V87.2568C28.0323 89.8714 26.0324 91.936 23.4997 91.936H11.7689C8.16998 91.9359 5.23751 88.9083 5.2372 85.193V79.0381C4.27196 78.5976 3.36759 77.9692 2.57658 77.1526C-0.858873 73.6058 -0.858846 67.8548 2.57658 64.3079C3.36761 63.4913 4.27193 62.8628 5.2372 62.4222V58.2198C5.23727 54.5044 8.16983 51.4769 11.7689 51.4768H15.5666C16.8846 25.0312 38.0796 4.00004 64.0241 4Z" fill="currentColor"/>
<path fill-rule="evenodd" clip-rule="evenodd" d="M86.6864 44.1836C88.6858 44.1838 90.4186 45.9736 90.4186 48.0376V77.6238C90.5519 79.6879 88.819 81.3391 86.8195 81.3393H64.0242L47.4947 91.523C46.8283 91.9358 46.0291 91.2484 46.162 90.5605L48.5612 81.3393H41.2289C39.2296 81.339 37.4969 79.5506 37.4969 77.4866V48.0376C37.4969 45.9736 39.2296 44.1839 41.2289 44.1836H86.6864ZM52.5606 59.8719C50.961 59.8719 49.761 61.2483 49.7609 62.762C49.7611 64.2756 51.0944 65.6523 52.5606 65.6524C54.16 65.6522 55.3601 64.2756 55.3603 62.762C55.3603 61.2484 54.1601 59.872 52.5606 59.8719ZM64.0242 59.8719C62.4246 59.8719 61.2245 61.2483 61.2245 62.762C61.2247 64.2757 62.558 65.6524 64.0242 65.6524C65.6236 65.6522 66.8237 64.2756 66.8239 62.762C66.8239 61.2484 65.6237 59.872 64.0242 59.8719ZM75.4889 59.8719C73.8893 59.8719 72.6894 61.2483 72.6894 62.762C72.6895 64.2756 74.0227 65.6523 75.4889 65.6524C77.0883 65.6522 78.2884 64.2756 78.2886 62.762C78.2886 61.2484 77.0884 59.872 75.4889 59.8719Z" fill="currentColor"/>
</svg>
