<svg width="60" height="60" viewBox="0 0 60 60" fill="none" xmlns="http://www.w3.org/2000/svg">
<path fill-rule="evenodd" clip-rule="evenodd" d="M7.38 23.1564C7.38 22.1113 8.25304 21.2642 9.33 21.2642H50.67C51.747 21.2642 52.62 22.1113 52.62 23.1564V45.9264H52.75C54.5449 45.9264 56 47.3384 56 49.0802V50.8463C56 52.5881 54.5449 54 52.75 54H7.25C5.45507 54 4 52.5881 4 50.8463V49.0802C4 47.3384 5.45507 45.9264 7.25 45.9264H7.38V23.1564ZM50.02 45.9264H9.98V23.7872H50.02V45.9264ZM6.665 49.7109C6.665 49.0142 7.24703 48.4494 7.965 48.4494H52.035C52.753 48.4494 53.335 49.0142 53.335 49.7109V50.2155C53.335 50.9122 52.753 51.477 52.035 51.477H7.965C7.24703 51.477 6.665 50.9122 6.665 50.2155V49.7109Z" fill="currentColor"/>
<path fill-rule="evenodd" clip-rule="evenodd" d="M23.1748 12.3075C23.1748 8.82396 26.0849 6 29.6748 6H30.3248C33.9146 6 36.8248 8.82396 36.8248 12.3075V14.6413H42.5448C43.2628 14.6413 43.8448 15.2061 43.8448 15.9028V40.1235C43.8448 40.8202 43.2628 41.385 42.5448 41.385H17.4548C16.7368 41.385 16.1548 40.8202 16.1548 40.1235V15.9028C16.1548 15.2061 16.7368 14.6413 17.4548 14.6413H23.1748V12.3075ZM23.1748 17.1643V20.7595H25.7748V17.1643H34.2248V20.7595H36.8248V17.1643H41.2448V38.862H18.7548V17.1643H23.1748ZM34.2248 14.6413H25.7748V12.6229C25.7748 10.3586 27.6664 8.523 29.9998 8.523C32.3332 8.523 34.2248 10.3586 34.2248 12.6229V14.6413Z" fill="currentColor"/>
<path d="M33.8348 30.6939L25.3848 27.4771L28.7323 35.6137L29.6098 33.1853L32.9898 36.4337L34.6473 34.8253L31.2673 31.5138L33.8348 30.6939Z" fill="currentColor"/>
</svg>
