<svg width="60" height="60" viewBox="0 0 60 60" fill="none" xmlns="http://www.w3.org/2000/svg">
<path d="M23.8095 17.5532C23.8095 21.4486 20.6684 24.6064 16.7937 24.6064C12.9189 24.6064 9.77778 21.4486 9.77778 17.5532C9.77778 13.6578 12.9189 10.5 16.7937 10.5C20.6684 10.5 23.8095 13.6578 23.8095 17.5532Z" fill="currentColor"/>
<path d="M30 32.4894C33.8748 32.4894 37.0159 29.3315 37.0159 25.4362C37.0159 21.5408 33.8748 18.383 30 18.383C26.1252 18.383 22.9841 21.5408 22.9841 25.4362C22.9841 29.3315 26.1252 32.4894 30 32.4894Z" fill="currentColor"/>
<path d="M38.9595 24.6064C38.8818 24.6161 38.8048 24.6262 38.7285 24.6365C38.7401 24.8193 38.746 25.0037 38.746 25.1895C38.746 27.7227 37.6533 30.0016 35.9117 31.584C41.6161 32.5717 44.1547 35.4113 44.3214 41.2432C46.5915 41.169 48.7421 40.8382 50.6867 40.2844C50.9892 37.7653 51.819 34.8725 51.819 34.8725L51.9626 39.8786C53.4381 39.3579 54.7699 38.6998 55.914 37.9215C56.0111 36.7744 56.0276 35.4257 55.9553 33.8424C55.7458 29.2501 54.8938 25.7756 48.3006 24.7078C46.9686 25.5354 45.3952 26.0136 43.7097 26.0136C41.9565 26.0136 40.3246 25.4962 38.9595 24.6064Z" fill="currentColor"/>
<path d="M12.1433 24.6519C5.20411 25.6245 4.04332 29.0108 4.04332 33.8424C3.96699 35.4135 3.99284 36.7477 4.11048 37.8796C5.33058 38.7294 6.77468 39.4328 8.38647 39.9738V34.8725C8.93743 37.2508 9.16223 38.3294 9.3505 40.2723C11.2554 40.8145 13.3629 41.1427 15.5903 41.2334C15.7137 36.599 17.2804 32.863 24.2393 31.613C22.4791 30.0294 21.373 27.7382 21.373 25.1895C21.373 25.0338 21.3771 24.8791 21.3853 24.7254C20.0594 25.5422 18.4964 26.0136 16.8229 26.0136C15.0998 26.0136 13.4939 25.5138 12.1433 24.6519Z" fill="currentColor"/>
<path d="M25.9501 32.8148C27.1736 33.4704 28.5729 33.8424 30.0595 33.8424C31.5379 33.8424 32.93 33.4745 34.1486 32.8256C41.5405 33.7231 42.457 37.2957 42.6755 42.0832C42.7478 43.6665 42.7313 45.0152 42.6342 46.1624C41.4901 46.9407 40.1583 47.5988 38.6828 48.1195L38.5392 43.1133C38.5392 43.1133 37.7095 46.0062 37.4069 48.5252C35.184 49.1583 32.6918 49.5 30.0595 49.5C27.3606 49.5 24.809 49.1579 22.5438 48.5131C22.3556 46.5703 22.1308 45.4916 21.5798 43.1133V48.2146C19.968 47.6737 18.5239 46.9703 17.3038 46.1204C17.1862 44.9886 17.1603 43.6543 17.2367 42.0832C17.2367 37.1126 18.4652 33.6717 25.9501 32.8148Z" fill="currentColor"/>
<path d="M43.619 24.6064C47.4938 24.6064 50.6349 21.4486 50.6349 17.5532C50.6349 13.6578 47.4938 10.5 43.619 10.5C39.7443 10.5 36.6032 13.6578 36.6032 17.5532C36.6032 21.4486 39.7443 24.6064 43.619 24.6064Z" fill="currentColor"/>
</svg>
