<svg width="60" height="60" viewBox="0 0 60 60" fill="none" xmlns="http://www.w3.org/2000/svg">
<path d="M52.8651 19.7036C52.8651 17.6864 51.4212 16.0549 49.6437 16.0549C47.8661 16.0549 46.4223 17.6864 46.4223 19.7036C46.4223 21.7207 47.8661 23.3522 49.6437 23.3522C51.4212 23.3522 52.8651 21.7207 52.8651 19.7036ZM54.9451 19.7036C54.9451 23.0058 52.5734 25.6859 49.6437 25.6859C46.714 25.6859 44.3423 23.0058 44.3423 19.7036C44.3423 16.4013 46.714 13.7212 49.6437 13.7212C52.5734 13.7212 54.9451 16.4013 54.9451 19.7036Z" fill="currentColor"/>
<path d="M44.1804 16.994C44.1804 14.1614 37.8499 11.3337 29.9366 11.3337C22.0238 11.3337 15.6933 14.1615 15.6933 16.994C15.6933 19.8264 22.0238 22.6542 29.9366 22.6542C37.8499 22.6542 44.1804 19.8264 44.1804 16.994ZM46.2604 16.994C46.2604 21.7027 38.9057 24.9879 29.9366 24.9879C20.9679 24.9879 13.6133 21.7026 13.6133 16.994C13.6133 12.2853 20.9679 9 29.9366 9C38.9057 9 46.2604 12.2853 46.2604 16.994Z" fill="currentColor"/>
<path d="M44.2393 16.9634V21.7894C44.2393 30.7145 37.7584 37.9518 29.7615 37.9518C21.9943 37.9518 15.6996 30.9228 15.6996 22.2544V16.9634H13.6196V22.2544C13.6196 32.2141 20.8477 40.2855 29.7615 40.2855C38.905 40.2855 46.3193 32.0059 46.3193 21.7894V16.9634H44.2393Z" fill="currentColor"/>
<path d="M47.8266 32.4197C51.7805 34.2792 53.92 36.616 53.92 38.8481C53.92 43.9723 43.2544 48.6664 30 48.6664C16.746 48.6664 6.08 43.9722 6.08 38.8481C6.08 36.5872 8.27624 34.2198 12.3203 32.3513C12.8514 32.106 13.1047 31.424 12.886 30.8281C12.6672 30.2322 12.0594 29.948 11.5283 30.1934C6.78977 32.3827 4 35.39 4 38.8481C4 45.8577 15.6844 51.0001 30 51.0001C44.3159 51.0001 56 45.8578 56 38.8481C56 35.429 53.2733 32.4509 48.6307 30.2674C48.101 30.0183 47.4916 30.2982 47.2695 30.8925C47.0474 31.4868 47.2969 32.1706 47.8266 32.4197Z" fill="currentColor"/>
</svg>
