<svg width="24" height="24" viewBox="0 0 24 24" fill="none" xmlns="http://www.w3.org/2000/svg">
<path d="M9.14286 6.25532C9.14286 8.05318 7.69311 9.51064 5.90476 9.51064C4.11641 9.51064 2.66667 8.05318 2.66667 6.25532C2.66667 4.45746 4.11641 3 5.90476 3C7.69311 3 9.14286 4.45746 9.14286 6.25532Z" fill="currentColor"/>
<path d="M12 13.1489C13.7884 13.1489 15.2381 11.6915 15.2381 9.89362C15.2381 8.09575 13.7884 6.6383 12 6.6383C10.2117 6.6383 8.76191 8.09575 8.76191 9.89362C8.76191 11.6915 10.2117 13.1489 12 13.1489Z" fill="currentColor"/>
<path d="M16.1352 9.51064C16.0993 9.51513 16.0638 9.51977 16.0286 9.52453C16.0339 9.60893 16.0366 9.69404 16.0366 9.77978C16.0366 10.9489 15.5323 12.0007 14.7285 12.7311C17.3613 13.1869 18.5329 14.4975 18.6099 17.1892C19.6576 17.1549 20.6502 17.0022 21.5477 16.7466C21.6873 15.584 22.0703 14.2488 22.0703 14.2488L22.1366 16.5594C22.8176 16.319 23.4323 16.0153 23.9603 15.6561C24.0051 15.1266 24.0127 14.5042 23.9794 13.7734C23.8827 11.6539 23.4895 10.0503 20.4464 9.55745C19.8317 9.93942 19.1055 10.1601 18.3276 10.1601C17.5184 10.1601 16.7652 9.92134 16.1352 9.51064Z" fill="currentColor"/>
<path d="M3.75845 9.53165C0.555742 9.98055 0.0199958 11.5435 0.0199958 13.7734C-0.0152351 14.4985 -0.0033031 15.1143 0.050991 15.6367C0.614114 16.029 1.28062 16.3536 2.02453 16.6033V14.2488C2.27882 15.3465 2.38257 15.8444 2.46946 16.741C3.34866 16.9913 4.32136 17.1428 5.34935 17.1846C5.40631 15.0457 6.1294 13.3214 9.34122 12.7444C8.52884 12.0136 8.01831 10.9561 8.01831 9.77978C8.01831 9.70792 8.02021 9.63651 8.02398 9.56558C7.41202 9.94255 6.69066 10.1601 5.91827 10.1601C5.123 10.1601 4.38181 9.92947 3.75845 9.53165Z" fill="currentColor"/>
<path d="M10.1308 13.2991C10.6955 13.6017 11.3413 13.7734 12.0275 13.7734C12.7098 13.7734 13.3523 13.6036 13.9147 13.3041C17.3264 13.7184 17.7494 15.3673 17.8502 17.5769C17.8836 18.3076 17.876 18.9301 17.8312 19.4596C17.3031 19.8188 16.6884 20.1225 16.0074 20.3628L15.9412 18.0523C15.9412 18.0523 15.5582 19.3875 15.4186 20.5501C14.3926 20.8423 13.2424 21 12.0275 21C10.7818 21 9.60416 20.8421 8.5587 20.5445C8.47181 19.6478 8.36805 19.15 8.11376 18.0523V20.4067C7.36986 20.1571 6.70335 19.8324 6.14023 19.4402C6.08593 18.9178 6.074 18.302 6.10923 17.5769C6.10923 15.2828 6.67625 13.6946 10.1308 13.2991Z" fill="currentColor"/>
<path d="M18.2857 9.51064C20.0741 9.51064 21.5238 8.05318 21.5238 6.25532C21.5238 4.45746 20.0741 3 18.2857 3C16.4974 3 15.0476 4.45746 15.0476 6.25532C15.0476 8.05318 16.4974 9.51064 18.2857 9.51064Z" fill="currentColor"/>
</svg>
