<svg width="60" height="60" viewBox="0 0 60 60" fill="none" xmlns="http://www.w3.org/2000/svg">
<path fill-rule="evenodd" clip-rule="evenodd" d="M30.5917 40.8014V31.1028L38.8993 31.0027C38.8936 31.3907 38.8803 31.7787 38.8595 32.1664L41.7189 32.3145C41.743 31.866 41.7579 31.4171 41.7635 30.9681L51.3871 30.8522C51.2782 32.2627 51.0785 33.6656 50.789 35.0521L53.594 35.6174C53.9967 33.689 54.2391 31.7317 54.3189 29.7648L54.32 29.7365L54.32 29.7083C54.3181 24.4778 52.6273 19.3828 49.4909 15.1563C46.3545 10.9298 41.9341 7.78969 36.8657 6.18777C31.7974 4.58586 26.3425 4.60473 21.2857 6.24168C16.229 7.87863 11.8313 11.0493 8.7252 15.2974C5.61914 19.5455 3.96492 24.6521 4.00056 29.8824C4.0362 35.1127 5.75986 40.197 8.92354 44.4039C12.0872 48.6108 16.5278 51.7233 21.6064 53.2936C26.6849 54.8639 32.1397 54.811 37.1857 53.1426L36.2723 50.4765C35.2002 50.831 34.1072 51.1032 33.0031 51.293C33.9869 50.3726 34.9295 49.4096 35.828 48.4068L33.6785 46.5483C32.7036 47.6364 31.6733 48.6746 30.5917 49.6589V43.6144H33.9706V40.8014H30.5917ZM22.1819 8.91337C23.1157 8.61108 24.0649 8.37105 25.023 8.19331C22.8526 10.6195 21.0469 13.3484 19.6683 16.298C19.5879 16.47 19.509 16.6426 19.4317 16.8158H11.1412C13.8884 13.1128 17.7495 10.3482 22.1819 8.91337ZM9.36891 19.6288C7.90694 22.3968 7.05989 25.4468 6.89373 28.5752L16.6172 28.458C16.7794 25.4496 17.3553 22.4797 18.3268 19.6288H9.36891ZM9.92907 40.8014C8.21517 37.9317 7.18727 34.7123 6.9284 31.388L16.5867 31.2716C16.6841 35.0438 17.2152 38.175 18.036 40.8014H9.92907ZM21.0484 40.8014C20.1625 38.3014 19.5552 35.1842 19.4501 31.2371L27.7283 31.1373V40.8014H21.0484ZM30.5917 28.2896L38.8091 28.1905C38.7993 28.0666 38.7887 27.9427 38.7773 27.8189L38.7767 27.8117L38.7761 27.8044C38.5476 24.9852 37.9251 22.2366 36.9445 19.6288H30.5917V28.2896ZM51.3911 28.0389L41.6779 28.156C41.6636 27.9619 41.6476 27.7679 41.6299 27.574C41.4083 24.8473 40.8492 22.1812 39.9797 19.6288H48.9511C50.3289 22.2375 51.1611 25.0976 51.3911 28.0389ZM19.4871 28.4234L27.7283 28.3241V19.6288H21.3622C20.3 22.4523 19.6677 25.4158 19.4871 28.4234ZM19.1027 43.6144H11.926C14.668 46.8961 18.328 49.3309 22.466 50.6104C23.2396 50.8495 24.0229 51.0462 24.8126 51.2004C23.4607 50.0303 22.0533 48.5773 20.7998 46.6894C20.1873 45.7667 19.6155 44.7475 19.1027 43.6144ZM22.2813 43.6144H27.7283V49.9289C26.1901 48.7241 24.5906 47.2499 23.1982 45.1527C22.8819 44.6762 22.5748 44.1648 22.2813 43.6144ZM35.7208 16.8158H30.5917V9.45227C32.6683 11.6578 34.3928 14.1412 35.7208 16.8158ZM22.5868 16.8158C23.9259 14.1213 25.6594 11.6392 27.7283 9.44692V16.8158H22.5868ZM38.8755 16.8158H47.1788L47.1771 16.8134C44.3976 13.0679 40.4803 10.2852 35.9888 8.8656C35.1007 8.58491 34.1992 8.36038 33.2897 8.19197C35.5994 10.7777 37.4799 13.6887 38.8755 16.8158Z" fill="currentColor"/>
<path fill-rule="evenodd" clip-rule="evenodd" d="M36.2608 33.2252C35.9687 33.1667 35.6664 33.1803 35.381 33.2646C35.0956 33.349 34.8358 33.5015 34.6251 33.7086C34.4143 33.9156 34.259 34.1707 34.1732 34.4512C34.0873 34.7316 34.0735 35.0286 34.133 35.3155L34.1343 35.3217L37.3038 49.9335L37.3043 49.9357C37.3784 50.279 37.5545 50.593 37.8105 50.8378C38.067 51.0832 38.392 51.248 38.7441 51.3114C39.0963 51.3747 39.4596 51.3337 39.788 51.1935C40.1163 51.0534 40.3948 50.8204 40.5879 50.5243L40.5909 50.5197L42.3678 47.7486L49.7492 55L56 48.8454L48.6121 41.5876L51.4416 39.8098C51.7408 39.6283 51.9793 39.3644 52.1272 39.0505C52.28 38.7263 52.329 38.3642 52.2675 38.012C52.2061 37.6598 52.0372 37.3344 51.7832 37.0787C51.5374 36.8312 51.2232 36.6605 50.8798 36.5872L36.2811 33.2293L36.2608 33.2252ZM47.7893 38.7654L37.2849 36.3492L39.562 46.8467L41.8566 43.2683L49.7469 51.0196L51.9528 48.8477L44.0691 41.1028L47.7893 38.7654Z" fill="currentColor"/>
</svg>
